<mxfile host="Electron" modified="2024-03-18T09:13:24.383Z" agent="Mozilla/5.0 (Windows NT 10.0; Win64; x64) AppleWebKit/537.36 (KHTML, like Gecko) draw.io/22.0.3 Chrome/114.0.5735.289 Electron/25.8.4 Safari/537.36" etag="DRIqo9SEAP75VXuG2bas" version="22.0.3" type="device" pages="2">
  <diagram name="main" id="lazlIpi1OaGIUPXyTEgX">
    <mxGraphModel dx="1313" dy="836" grid="0" gridSize="10" guides="1" tooltips="1" connect="1" arrows="1" fold="1" page="1" pageScale="1" pageWidth="827" pageHeight="1169" background="#FFFFFF" math="0" shadow="0">
      <root>
        <mxCell id="0" />
        <mxCell id="1" parent="0" />
        <mxCell id="VekV48xuK0N74o1VEVem-3" value="" style="edgeStyle=orthogonalEdgeStyle;rounded=0;orthogonalLoop=1;jettySize=auto;html=1;endArrow=none;endFill=0;" edge="1" parent="1" source="VekV48xuK0N74o1VEVem-4" target="VekV48xuK0N74o1VEVem-7">
          <mxGeometry relative="1" as="geometry" />
        </mxCell>
        <mxCell id="VekV48xuK0N74o1VEVem-4" value="Начало" style="strokeWidth=2;html=1;shape=mxgraph.flowchart.terminator;whiteSpace=wrap;fontSize=10;" vertex="1" parent="1">
          <mxGeometry x="31" y="60" width="100" height="50" as="geometry" />
        </mxCell>
        <mxCell id="VekV48xuK0N74o1VEVem-5" value="Конец" style="strokeWidth=2;html=1;shape=mxgraph.flowchart.terminator;whiteSpace=wrap;fontSize=10;" vertex="1" parent="1">
          <mxGeometry x="31" y="1022" width="100" height="50" as="geometry" />
        </mxCell>
        <mxCell id="VekV48xuK0N74o1VEVem-6" style="edgeStyle=orthogonalEdgeStyle;rounded=0;orthogonalLoop=1;jettySize=auto;html=1;entryX=0.5;entryY=0;entryDx=0;entryDy=0;endArrow=none;endFill=0;" edge="1" parent="1" source="VekV48xuK0N74o1VEVem-7" target="VekV48xuK0N74o1VEVem-9">
          <mxGeometry relative="1" as="geometry" />
        </mxCell>
        <mxCell id="VekV48xuK0N74o1VEVem-7" value="&lt;font style=&quot;font-size: 10px;&quot;&gt;открытие файла&lt;/font&gt;" style="rounded=0;whiteSpace=wrap;html=1;absoluteArcSize=1;arcSize=14;strokeWidth=2;" vertex="1" parent="1">
          <mxGeometry x="43.499999999999886" y="139.9999999999999" width="75" height="50" as="geometry" />
        </mxCell>
        <mxCell id="VekV48xuK0N74o1VEVem-8" style="edgeStyle=orthogonalEdgeStyle;rounded=0;orthogonalLoop=1;jettySize=auto;html=1;entryX=0.5;entryY=0;entryDx=0;entryDy=0;endArrow=none;endFill=0;" edge="1" parent="1" source="VekV48xuK0N74o1VEVem-9" target="VekV48xuK0N74o1VEVem-12">
          <mxGeometry relative="1" as="geometry" />
        </mxCell>
        <mxCell id="VekV48xuK0N74o1VEVem-9" value="&lt;font style=&quot;font-size: 10px;&quot;&gt;подсчет количества сток&lt;/font&gt;" style="rounded=0;whiteSpace=wrap;html=1;absoluteArcSize=1;arcSize=14;strokeWidth=2;" vertex="1" parent="1">
          <mxGeometry x="43.499999999999886" y="219.9999999999999" width="75" height="50" as="geometry" />
        </mxCell>
        <mxCell id="VekV48xuK0N74o1VEVem-10" value="" style="group" vertex="1" connectable="0" parent="1">
          <mxGeometry x="35.5" y="302" width="90" height="55" as="geometry" />
        </mxCell>
        <mxCell id="VekV48xuK0N74o1VEVem-11" value="&lt;font style=&quot;font-size: 10px;&quot;&gt;чтение из файла в список структур&lt;/font&gt;" style="rounded=0;whiteSpace=wrap;html=1;absoluteArcSize=1;arcSize=14;strokeWidth=2;" vertex="1" parent="VekV48xuK0N74o1VEVem-10">
          <mxGeometry y="12.692307692307692" width="90" height="55" as="geometry" />
        </mxCell>
        <mxCell id="VekV48xuK0N74o1VEVem-12" value="&lt;font style=&quot;font-size: 10px;&quot;&gt;А1&lt;/font&gt;" style="rounded=0;whiteSpace=wrap;html=1;absoluteArcSize=1;arcSize=14;strokeWidth=2;" vertex="1" parent="VekV48xuK0N74o1VEVem-10">
          <mxGeometry width="90" height="12.692307692307692" as="geometry" />
        </mxCell>
        <mxCell id="VekV48xuK0N74o1VEVem-122" value="" style="edgeStyle=orthogonalEdgeStyle;rounded=0;orthogonalLoop=1;jettySize=auto;html=1;endArrow=none;endFill=0;" edge="1" parent="1" source="VekV48xuK0N74o1VEVem-25" target="VekV48xuK0N74o1VEVem-29">
          <mxGeometry relative="1" as="geometry" />
        </mxCell>
        <mxCell id="VekV48xuK0N74o1VEVem-25" value="&lt;font style=&quot;font-size: 10px;&quot;&gt;закрытие файла&lt;/font&gt;" style="rounded=0;whiteSpace=wrap;html=1;absoluteArcSize=1;arcSize=14;strokeWidth=2;" vertex="1" parent="1">
          <mxGeometry x="42.999999999999886" y="390.9999999999999" width="75" height="50" as="geometry" />
        </mxCell>
        <mxCell id="VekV48xuK0N74o1VEVem-26" style="edgeStyle=orthogonalEdgeStyle;rounded=0;orthogonalLoop=1;jettySize=auto;html=1;entryX=0.5;entryY=0;entryDx=0;entryDy=0;endArrow=none;endFill=0;" edge="1" parent="1" source="VekV48xuK0N74o1VEVem-11" target="VekV48xuK0N74o1VEVem-25">
          <mxGeometry relative="1" as="geometry" />
        </mxCell>
        <mxCell id="VekV48xuK0N74o1VEVem-105" style="edgeStyle=orthogonalEdgeStyle;rounded=0;orthogonalLoop=1;jettySize=auto;html=1;entryX=0.5;entryY=0;entryDx=0;entryDy=0;entryPerimeter=0;endArrow=none;endFill=0;" edge="1" parent="1" source="VekV48xuK0N74o1VEVem-28" target="VekV48xuK0N74o1VEVem-103">
          <mxGeometry relative="1" as="geometry">
            <mxPoint x="80.99999999999989" y="859.5000000000002" as="targetPoint" />
          </mxGeometry>
        </mxCell>
        <mxCell id="VekV48xuK0N74o1VEVem-106" style="edgeStyle=orthogonalEdgeStyle;rounded=0;orthogonalLoop=1;jettySize=auto;html=1;entryX=0.5;entryY=0;entryDx=0;entryDy=0;endArrow=none;endFill=0;" edge="1" parent="1" source="VekV48xuK0N74o1VEVem-28" target="VekV48xuK0N74o1VEVem-83">
          <mxGeometry relative="1" as="geometry">
            <Array as="points">
              <mxPoint x="81" y="819" />
              <mxPoint x="192" y="819" />
            </Array>
          </mxGeometry>
        </mxCell>
        <mxCell id="VekV48xuK0N74o1VEVem-119" value="&amp;nbsp;1&amp;nbsp;" style="edgeLabel;html=1;align=center;verticalAlign=middle;resizable=0;points=[];" vertex="1" connectable="0" parent="VekV48xuK0N74o1VEVem-106">
          <mxGeometry x="0.4621" y="1" relative="1" as="geometry">
            <mxPoint x="-6" as="offset" />
          </mxGeometry>
        </mxCell>
        <mxCell id="VekV48xuK0N74o1VEVem-107" style="edgeStyle=orthogonalEdgeStyle;rounded=0;orthogonalLoop=1;jettySize=auto;html=1;entryX=0.5;entryY=0;entryDx=0;entryDy=0;endArrow=none;endFill=0;" edge="1" parent="1" source="VekV48xuK0N74o1VEVem-28" target="VekV48xuK0N74o1VEVem-47">
          <mxGeometry relative="1" as="geometry">
            <Array as="points">
              <mxPoint x="81" y="788" />
              <mxPoint x="283" y="788" />
            </Array>
          </mxGeometry>
        </mxCell>
        <mxCell id="VekV48xuK0N74o1VEVem-118" value="&amp;nbsp;2&amp;nbsp;" style="edgeLabel;html=1;align=center;verticalAlign=middle;resizable=0;points=[];" vertex="1" connectable="0" parent="VekV48xuK0N74o1VEVem-107">
          <mxGeometry x="0.0578" relative="1" as="geometry">
            <mxPoint x="-12" as="offset" />
          </mxGeometry>
        </mxCell>
        <mxCell id="VekV48xuK0N74o1VEVem-108" style="edgeStyle=orthogonalEdgeStyle;rounded=0;orthogonalLoop=1;jettySize=auto;html=1;entryX=0.5;entryY=0;entryDx=0;entryDy=0;endArrow=none;endFill=0;" edge="1" parent="1" source="VekV48xuK0N74o1VEVem-28" target="VekV48xuK0N74o1VEVem-72">
          <mxGeometry relative="1" as="geometry">
            <Array as="points">
              <mxPoint x="81" y="758" />
              <mxPoint x="375" y="758" />
            </Array>
          </mxGeometry>
        </mxCell>
        <mxCell id="VekV48xuK0N74o1VEVem-117" value="&amp;nbsp;3&amp;nbsp;" style="edgeLabel;html=1;align=center;verticalAlign=middle;resizable=0;points=[];" vertex="1" connectable="0" parent="VekV48xuK0N74o1VEVem-108">
          <mxGeometry x="-0.1947" relative="1" as="geometry">
            <mxPoint x="-23" as="offset" />
          </mxGeometry>
        </mxCell>
        <mxCell id="VekV48xuK0N74o1VEVem-109" style="edgeStyle=orthogonalEdgeStyle;rounded=0;orthogonalLoop=1;jettySize=auto;html=1;entryX=0.5;entryY=0;entryDx=0;entryDy=0;endArrow=none;endFill=0;" edge="1" parent="1" source="VekV48xuK0N74o1VEVem-28" target="VekV48xuK0N74o1VEVem-87">
          <mxGeometry relative="1" as="geometry">
            <Array as="points">
              <mxPoint x="81" y="730" />
              <mxPoint x="469" y="730" />
            </Array>
          </mxGeometry>
        </mxCell>
        <mxCell id="VekV48xuK0N74o1VEVem-116" value="&amp;nbsp;4&amp;nbsp;" style="edgeLabel;html=1;align=center;verticalAlign=middle;resizable=0;points=[];" vertex="1" connectable="0" parent="VekV48xuK0N74o1VEVem-109">
          <mxGeometry x="-0.3948" y="-1" relative="1" as="geometry">
            <mxPoint x="-26" as="offset" />
          </mxGeometry>
        </mxCell>
        <mxCell id="VekV48xuK0N74o1VEVem-110" style="edgeStyle=orthogonalEdgeStyle;rounded=0;orthogonalLoop=1;jettySize=auto;html=1;entryX=0.5;entryY=0;entryDx=0;entryDy=0;endArrow=none;endFill=0;" edge="1" parent="1" source="VekV48xuK0N74o1VEVem-28" target="VekV48xuK0N74o1VEVem-92">
          <mxGeometry relative="1" as="geometry">
            <Array as="points">
              <mxPoint x="81" y="703" />
              <mxPoint x="562" y="703" />
            </Array>
          </mxGeometry>
        </mxCell>
        <mxCell id="VekV48xuK0N74o1VEVem-115" value="&amp;nbsp;5&amp;nbsp;" style="edgeLabel;html=1;align=center;verticalAlign=middle;resizable=0;points=[];" vertex="1" connectable="0" parent="VekV48xuK0N74o1VEVem-110">
          <mxGeometry x="-0.542" relative="1" as="geometry">
            <mxPoint x="-27" as="offset" />
          </mxGeometry>
        </mxCell>
        <mxCell id="VekV48xuK0N74o1VEVem-111" style="edgeStyle=orthogonalEdgeStyle;rounded=0;orthogonalLoop=1;jettySize=auto;html=1;entryX=0.5;entryY=0;entryDx=0;entryDy=0;endArrow=none;endFill=0;" edge="1" parent="1" source="VekV48xuK0N74o1VEVem-28" target="VekV48xuK0N74o1VEVem-96">
          <mxGeometry relative="1" as="geometry">
            <Array as="points">
              <mxPoint x="81" y="669" />
              <mxPoint x="657" y="669" />
            </Array>
          </mxGeometry>
        </mxCell>
        <mxCell id="VekV48xuK0N74o1VEVem-114" value="&amp;nbsp;6&amp;nbsp;" style="edgeLabel;html=1;align=center;verticalAlign=middle;resizable=0;points=[];" vertex="1" connectable="0" parent="VekV48xuK0N74o1VEVem-111">
          <mxGeometry x="-0.662" y="3" relative="1" as="geometry">
            <mxPoint x="-34" y="3" as="offset" />
          </mxGeometry>
        </mxCell>
        <mxCell id="VekV48xuK0N74o1VEVem-112" style="edgeStyle=orthogonalEdgeStyle;rounded=0;orthogonalLoop=1;jettySize=auto;html=1;entryX=0.5;entryY=0;entryDx=0;entryDy=0;entryPerimeter=0;endArrow=none;endFill=0;" edge="1" parent="1" source="VekV48xuK0N74o1VEVem-28" target="VekV48xuK0N74o1VEVem-103">
          <mxGeometry relative="1" as="geometry">
            <mxPoint x="746.5" y="862" as="targetPoint" />
            <Array as="points">
              <mxPoint x="81" y="639" />
              <mxPoint x="747" y="639" />
              <mxPoint x="747" y="931" />
              <mxPoint x="81" y="931" />
            </Array>
          </mxGeometry>
        </mxCell>
        <mxCell id="VekV48xuK0N74o1VEVem-113" value="&amp;nbsp;7&amp;nbsp;" style="edgeLabel;html=1;align=center;verticalAlign=middle;resizable=0;points=[];" vertex="1" connectable="0" parent="VekV48xuK0N74o1VEVem-112">
          <mxGeometry x="-0.763" y="1" relative="1" as="geometry">
            <mxPoint x="-122" y="2" as="offset" />
          </mxGeometry>
        </mxCell>
        <mxCell id="VekV48xuK0N74o1VEVem-28" value="опция" style="strokeWidth=2;html=1;shape=mxgraph.flowchart.decision;whiteSpace=wrap;fontSize=10;" vertex="1" parent="1">
          <mxGeometry x="30.5" y="560" width="100" height="50" as="geometry" />
        </mxCell>
        <mxCell id="VekV48xuK0N74o1VEVem-121" value="" style="edgeStyle=orthogonalEdgeStyle;rounded=0;orthogonalLoop=1;jettySize=auto;html=1;endArrow=none;endFill=0;" edge="1" parent="1" source="VekV48xuK0N74o1VEVem-29" target="VekV48xuK0N74o1VEVem-28">
          <mxGeometry relative="1" as="geometry" />
        </mxCell>
        <mxCell id="VekV48xuK0N74o1VEVem-29" value="выбранная &lt;br&gt;опция" style="shape=parallelogram;html=1;strokeWidth=2;perimeter=parallelogramPerimeter;whiteSpace=wrap;rounded=0;arcSize=12;size=0.23;fontSize=10;" vertex="1" parent="1">
          <mxGeometry x="30.5" y="490" width="100" height="50" as="geometry" />
        </mxCell>
        <mxCell id="VekV48xuK0N74o1VEVem-46" value="" style="group" vertex="1" connectable="0" parent="1">
          <mxGeometry x="241" y="853" width="83" height="63" as="geometry" />
        </mxCell>
        <mxCell id="VekV48xuK0N74o1VEVem-47" value="&lt;font style=&quot;font-size: 10px;&quot;&gt;bubble&lt;br&gt;SortBy&lt;br&gt;Field&lt;br&gt;(&quot;friends&quot;)&lt;/font&gt;" style="rounded=0;whiteSpace=wrap;html=1;absoluteArcSize=1;arcSize=14;strokeWidth=2;" vertex="1" parent="VekV48xuK0N74o1VEVem-46">
          <mxGeometry x="13.95575221238938" width="55.08849557522124" height="62.99999999999999" as="geometry" />
        </mxCell>
        <mxCell id="VekV48xuK0N74o1VEVem-48" value="" style="rounded=0;whiteSpace=wrap;html=1;absoluteArcSize=1;arcSize=14;strokeWidth=2;" vertex="1" parent="VekV48xuK0N74o1VEVem-46">
          <mxGeometry x="69.04424778761062" width="13.95575221238938" height="62.99999999999999" as="geometry" />
        </mxCell>
        <mxCell id="VekV48xuK0N74o1VEVem-49" value="" style="rounded=0;whiteSpace=wrap;html=1;absoluteArcSize=1;arcSize=14;strokeWidth=2;" vertex="1" parent="VekV48xuK0N74o1VEVem-46">
          <mxGeometry width="13.95575221238938" height="62.99999999999999" as="geometry" />
        </mxCell>
        <mxCell id="VekV48xuK0N74o1VEVem-71" value="" style="group" vertex="1" connectable="0" parent="1">
          <mxGeometry x="333" y="853" width="83" height="63" as="geometry" />
        </mxCell>
        <mxCell id="VekV48xuK0N74o1VEVem-72" value="&lt;font style=&quot;font-size: 10px;&quot;&gt;bubble&lt;br style=&quot;border-color: var(--border-color);&quot;&gt;SortBy&lt;br style=&quot;border-color: var(--border-color);&quot;&gt;&lt;span style=&quot;border-color: var(--border-color);&quot;&gt;Field&lt;/span&gt;&lt;br style=&quot;border-color: var(--border-color);&quot;&gt;&lt;span style=&quot;border-color: var(--border-color);&quot;&gt;(&quot;id&quot;)&lt;/span&gt;&lt;/font&gt;" style="rounded=0;whiteSpace=wrap;html=1;absoluteArcSize=1;arcSize=14;strokeWidth=2;" vertex="1" parent="VekV48xuK0N74o1VEVem-71">
          <mxGeometry x="13.95575221238938" width="55.08849557522124" height="62.99999999999999" as="geometry" />
        </mxCell>
        <mxCell id="VekV48xuK0N74o1VEVem-73" value="" style="rounded=0;whiteSpace=wrap;html=1;absoluteArcSize=1;arcSize=14;strokeWidth=2;" vertex="1" parent="VekV48xuK0N74o1VEVem-71">
          <mxGeometry x="69.04424778761062" width="13.95575221238938" height="62.99999999999999" as="geometry" />
        </mxCell>
        <mxCell id="VekV48xuK0N74o1VEVem-74" value="" style="rounded=0;whiteSpace=wrap;html=1;absoluteArcSize=1;arcSize=14;strokeWidth=2;" vertex="1" parent="VekV48xuK0N74o1VEVem-71">
          <mxGeometry width="13.95575221238938" height="62.99999999999999" as="geometry" />
        </mxCell>
        <mxCell id="VekV48xuK0N74o1VEVem-82" value="" style="group" vertex="1" connectable="0" parent="1">
          <mxGeometry x="150" y="853" width="83" height="63" as="geometry" />
        </mxCell>
        <mxCell id="VekV48xuK0N74o1VEVem-83" value="&lt;font style=&quot;font-size: 10px;&quot;&gt;printAll&lt;br style=&quot;border-color: var(--border-color);&quot;&gt;Users()&lt;/font&gt;" style="rounded=0;whiteSpace=wrap;html=1;absoluteArcSize=1;arcSize=14;strokeWidth=2;" vertex="1" parent="VekV48xuK0N74o1VEVem-82">
          <mxGeometry x="13.95575221238938" width="55.08849557522124" height="62.99999999999999" as="geometry" />
        </mxCell>
        <mxCell id="VekV48xuK0N74o1VEVem-84" value="" style="rounded=0;whiteSpace=wrap;html=1;absoluteArcSize=1;arcSize=14;strokeWidth=2;" vertex="1" parent="VekV48xuK0N74o1VEVem-82">
          <mxGeometry x="69.04424778761062" width="13.95575221238938" height="62.99999999999999" as="geometry" />
        </mxCell>
        <mxCell id="VekV48xuK0N74o1VEVem-85" value="" style="rounded=0;whiteSpace=wrap;html=1;absoluteArcSize=1;arcSize=14;strokeWidth=2;" vertex="1" parent="VekV48xuK0N74o1VEVem-82">
          <mxGeometry width="13.95575221238938" height="62.99999999999999" as="geometry" />
        </mxCell>
        <mxCell id="VekV48xuK0N74o1VEVem-86" value="" style="group" vertex="1" connectable="0" parent="1">
          <mxGeometry x="427" y="853" width="83" height="63" as="geometry" />
        </mxCell>
        <mxCell id="VekV48xuK0N74o1VEVem-87" value="&lt;span style=&quot;font-size: 10px;&quot;&gt;addUser()&lt;/span&gt;" style="rounded=0;whiteSpace=wrap;html=1;absoluteArcSize=1;arcSize=14;strokeWidth=2;" vertex="1" parent="VekV48xuK0N74o1VEVem-86">
          <mxGeometry x="13.95575221238938" width="55.08849557522124" height="62.99999999999999" as="geometry" />
        </mxCell>
        <mxCell id="VekV48xuK0N74o1VEVem-88" value="" style="rounded=0;whiteSpace=wrap;html=1;absoluteArcSize=1;arcSize=14;strokeWidth=2;" vertex="1" parent="VekV48xuK0N74o1VEVem-86">
          <mxGeometry x="69.04424778761062" width="13.95575221238938" height="62.99999999999999" as="geometry" />
        </mxCell>
        <mxCell id="VekV48xuK0N74o1VEVem-89" value="" style="rounded=0;whiteSpace=wrap;html=1;absoluteArcSize=1;arcSize=14;strokeWidth=2;" vertex="1" parent="VekV48xuK0N74o1VEVem-86">
          <mxGeometry width="13.95575221238938" height="62.99999999999999" as="geometry" />
        </mxCell>
        <mxCell id="VekV48xuK0N74o1VEVem-91" value="" style="group" vertex="1" connectable="0" parent="1">
          <mxGeometry x="520" y="854" width="83" height="63" as="geometry" />
        </mxCell>
        <mxCell id="VekV48xuK0N74o1VEVem-92" value="&lt;span style=&quot;font-size: 10px;&quot;&gt;filterList()&lt;/span&gt;" style="rounded=0;whiteSpace=wrap;html=1;absoluteArcSize=1;arcSize=14;strokeWidth=2;" vertex="1" parent="VekV48xuK0N74o1VEVem-91">
          <mxGeometry x="13.95575221238938" width="55.08849557522124" height="62.99999999999999" as="geometry" />
        </mxCell>
        <mxCell id="VekV48xuK0N74o1VEVem-93" value="" style="rounded=0;whiteSpace=wrap;html=1;absoluteArcSize=1;arcSize=14;strokeWidth=2;" vertex="1" parent="VekV48xuK0N74o1VEVem-91">
          <mxGeometry x="69.04424778761062" width="13.95575221238938" height="62.99999999999999" as="geometry" />
        </mxCell>
        <mxCell id="VekV48xuK0N74o1VEVem-94" value="" style="rounded=0;whiteSpace=wrap;html=1;absoluteArcSize=1;arcSize=14;strokeWidth=2;" vertex="1" parent="VekV48xuK0N74o1VEVem-91">
          <mxGeometry width="13.95575221238938" height="62.99999999999999" as="geometry" />
        </mxCell>
        <mxCell id="VekV48xuK0N74o1VEVem-95" value="" style="group" vertex="1" connectable="0" parent="1">
          <mxGeometry x="615" y="855" width="83" height="63" as="geometry" />
        </mxCell>
        <mxCell id="VekV48xuK0N74o1VEVem-96" value="&lt;span style=&quot;font-size: 10px;&quot;&gt;deleteById()&lt;/span&gt;" style="rounded=0;whiteSpace=wrap;html=1;absoluteArcSize=1;arcSize=14;strokeWidth=2;" vertex="1" parent="VekV48xuK0N74o1VEVem-95">
          <mxGeometry x="13.95575221238938" width="55.08849557522124" height="62.99999999999999" as="geometry" />
        </mxCell>
        <mxCell id="VekV48xuK0N74o1VEVem-97" value="" style="rounded=0;whiteSpace=wrap;html=1;absoluteArcSize=1;arcSize=14;strokeWidth=2;" vertex="1" parent="VekV48xuK0N74o1VEVem-95">
          <mxGeometry x="69.04424778761062" width="13.95575221238938" height="62.99999999999999" as="geometry" />
        </mxCell>
        <mxCell id="VekV48xuK0N74o1VEVem-98" value="" style="rounded=0;whiteSpace=wrap;html=1;absoluteArcSize=1;arcSize=14;strokeWidth=2;" vertex="1" parent="VekV48xuK0N74o1VEVem-95">
          <mxGeometry width="13.95575221238938" height="62.99999999999999" as="geometry" />
        </mxCell>
        <mxCell id="VekV48xuK0N74o1VEVem-123" style="edgeStyle=orthogonalEdgeStyle;rounded=0;orthogonalLoop=1;jettySize=auto;html=1;exitX=1;exitY=0.5;exitDx=0;exitDy=0;exitPerimeter=0;" edge="1" parent="1" source="VekV48xuK0N74o1VEVem-103">
          <mxGeometry relative="1" as="geometry">
            <mxPoint x="81" y="465" as="targetPoint" />
            <Array as="points">
              <mxPoint x="812" y="970" />
              <mxPoint x="812" y="465" />
              <mxPoint x="81" y="465" />
            </Array>
          </mxGeometry>
        </mxCell>
        <mxCell id="VekV48xuK0N74o1VEVem-125" value="&amp;nbsp;нет&amp;nbsp;" style="edgeLabel;html=1;align=center;verticalAlign=middle;resizable=0;points=[];" vertex="1" connectable="0" parent="VekV48xuK0N74o1VEVem-123">
          <mxGeometry x="-0.9793" y="1" relative="1" as="geometry">
            <mxPoint x="3" y="1" as="offset" />
          </mxGeometry>
        </mxCell>
        <mxCell id="VekV48xuK0N74o1VEVem-124" value="" style="edgeStyle=orthogonalEdgeStyle;rounded=0;orthogonalLoop=1;jettySize=auto;html=1;endArrow=none;endFill=0;" edge="1" parent="1" source="VekV48xuK0N74o1VEVem-103" target="VekV48xuK0N74o1VEVem-5">
          <mxGeometry relative="1" as="geometry" />
        </mxCell>
        <mxCell id="VekV48xuK0N74o1VEVem-103" value="опция = 7?" style="strokeWidth=2;html=1;shape=mxgraph.flowchart.decision;whiteSpace=wrap;fontSize=10;" vertex="1" parent="1">
          <mxGeometry x="31" y="945" width="100" height="50" as="geometry" />
        </mxCell>
        <mxCell id="VekV48xuK0N74o1VEVem-126" style="edgeStyle=orthogonalEdgeStyle;rounded=0;orthogonalLoop=1;jettySize=auto;html=1;entryX=0.5;entryY=0;entryDx=0;entryDy=0;entryPerimeter=0;endArrow=none;endFill=0;" edge="1" parent="1" source="VekV48xuK0N74o1VEVem-83" target="VekV48xuK0N74o1VEVem-103">
          <mxGeometry relative="1" as="geometry">
            <Array as="points">
              <mxPoint x="192" y="931" />
              <mxPoint x="81" y="931" />
            </Array>
          </mxGeometry>
        </mxCell>
        <mxCell id="VekV48xuK0N74o1VEVem-127" style="edgeStyle=orthogonalEdgeStyle;rounded=0;orthogonalLoop=1;jettySize=auto;html=1;entryX=0.5;entryY=0;entryDx=0;entryDy=0;entryPerimeter=0;endArrow=none;endFill=0;" edge="1" parent="1" source="VekV48xuK0N74o1VEVem-47" target="VekV48xuK0N74o1VEVem-103">
          <mxGeometry relative="1" as="geometry">
            <Array as="points">
              <mxPoint x="283" y="931" />
              <mxPoint x="81" y="931" />
            </Array>
          </mxGeometry>
        </mxCell>
        <mxCell id="VekV48xuK0N74o1VEVem-128" style="edgeStyle=orthogonalEdgeStyle;rounded=0;orthogonalLoop=1;jettySize=auto;html=1;entryX=0.5;entryY=0;entryDx=0;entryDy=0;entryPerimeter=0;endArrow=none;endFill=0;" edge="1" parent="1" source="VekV48xuK0N74o1VEVem-72" target="VekV48xuK0N74o1VEVem-103">
          <mxGeometry relative="1" as="geometry">
            <mxPoint x="154.28571428571433" y="959.1428571428571" as="targetPoint" />
            <Array as="points">
              <mxPoint x="375" y="931" />
              <mxPoint x="81" y="931" />
            </Array>
          </mxGeometry>
        </mxCell>
        <mxCell id="VekV48xuK0N74o1VEVem-129" style="edgeStyle=orthogonalEdgeStyle;rounded=0;orthogonalLoop=1;jettySize=auto;html=1;entryX=0.5;entryY=0;entryDx=0;entryDy=0;entryPerimeter=0;endArrow=none;endFill=0;" edge="1" parent="1" source="VekV48xuK0N74o1VEVem-87" target="VekV48xuK0N74o1VEVem-103">
          <mxGeometry relative="1" as="geometry">
            <Array as="points">
              <mxPoint x="469" y="931" />
              <mxPoint x="81" y="931" />
            </Array>
          </mxGeometry>
        </mxCell>
        <mxCell id="VekV48xuK0N74o1VEVem-130" style="edgeStyle=orthogonalEdgeStyle;rounded=0;orthogonalLoop=1;jettySize=auto;html=1;entryX=0.5;entryY=0;entryDx=0;entryDy=0;entryPerimeter=0;endArrow=none;endFill=0;" edge="1" parent="1" source="VekV48xuK0N74o1VEVem-92" target="VekV48xuK0N74o1VEVem-103">
          <mxGeometry relative="1" as="geometry">
            <Array as="points">
              <mxPoint x="562" y="931" />
              <mxPoint x="81" y="931" />
            </Array>
          </mxGeometry>
        </mxCell>
        <mxCell id="VekV48xuK0N74o1VEVem-131" style="edgeStyle=orthogonalEdgeStyle;rounded=0;orthogonalLoop=1;jettySize=auto;html=1;entryX=0.5;entryY=0;entryDx=0;entryDy=0;entryPerimeter=0;endArrow=none;endFill=0;" edge="1" parent="1" source="VekV48xuK0N74o1VEVem-96" target="VekV48xuK0N74o1VEVem-103">
          <mxGeometry relative="1" as="geometry">
            <Array as="points">
              <mxPoint x="657" y="931" />
              <mxPoint x="81" y="931" />
            </Array>
          </mxGeometry>
        </mxCell>
      </root>
    </mxGraphModel>
  </diagram>
  <diagram id="W08SciOS30D43uL-H1Vg" name="A1">
    <mxGraphModel dx="1167" dy="743" grid="0" gridSize="10" guides="1" tooltips="1" connect="1" arrows="1" fold="1" page="1" pageScale="1" pageWidth="827" pageHeight="1169" math="0" shadow="0">
      <root>
        <mxCell id="0" />
        <mxCell id="1" parent="0" />
      </root>
    </mxGraphModel>
  </diagram>
</mxfile>
